<svg width="512" height="512" viewBox="0 0 512 512" fill="none" xmlns="http://www.w3.org/2000/svg">
  <rect width="512" height="512" rx="96" fill="#1A1A1A"/>
  <path d="M72 108C72 89.2223 87.2223 74 106 74H406C424.778 74 440 89.2223 440 108V314C440 332.778 424.778 348 406 348H326L256 438L186 348H106C87.2223 348 72 332.778 72 314V108Z" fill="#FAF7F0"/>
  <path d="M298 165C315.67 165 330 179.33 330 197V277C330 294.67 315.67 309 298 309H214C196.33 309 182 294.67 182 277V197C182 179.33 196.33 165 214 165H298ZM256 220C241.641 220 230 231.641 230 246C230 260.359 241.641 272 256 272C270.359 272 282 260.359 282 246C282 231.641 270.359 220 256 220Z" fill="#FF6B00"/>
</svg>
